<svg width="48" height="85" viewBox="0 0 48 85" fill="none" xmlns="http://www.w3.org/2000/svg">
<path d="M4.30258 0.0468758C3.77618 -0.120234 3.21399 0.171025 3.04688 0.697421L0.323663 9.27554C0.156554 9.80194 0.447813 10.3641 0.974209 10.5312C1.5006 10.6984 2.0628 10.4071 2.22991 9.8807L4.65055 2.2557L12.2755 4.67634C12.8019 4.84345 13.3641 4.55219 13.5312 4.02579C13.6984 3.4994 13.4071 2.9372 12.8807 2.77009L4.30258 0.0468758ZM3.11208 1.46L3.57947 2.36218L5.35531 1.44217L4.88792 0.539995L3.11208 1.46ZM4.51426 4.16653L5.44904 5.97087L7.22487 5.05086L6.29009 3.24652L4.51426 4.16653ZM6.38382 7.77522L7.31861 9.57957L9.09444 8.65956L8.15966 6.85521L6.38382 7.77522ZM8.25339 11.3839L9.18817 13.1883L10.964 12.2683L10.0292 10.4639L8.25339 11.3839ZM10.123 14.9926L11.0577 16.797L12.8336 15.877L11.8988 14.0726L10.123 14.9926ZM11.9925 18.6013L12.9273 20.4057L14.7031 19.4856L13.7684 17.6813L11.9925 18.6013ZM13.8621 22.21L14.7969 24.0143L16.5727 23.0943L15.6379 21.29L13.8621 22.21ZM15.7316 25.8187L16.6664 27.623L18.4423 26.703L17.5075 24.8987L15.7316 25.8187ZM17.6012 29.4274L18.536 31.2317L20.3118 30.3117L19.377 28.5074L17.6012 29.4274ZM19.4708 33.0361L20.4056 34.8404L22.1814 33.9204L21.2466 32.1161L19.4708 33.0361ZM21.3403 36.6448L22.2751 38.4491L24.051 37.5291L23.1162 35.7248L21.3403 36.6448ZM23.2099 40.2535L24.1447 42.0578L25.9205 41.1378L24.9857 39.3335L23.2099 40.2535ZM25.0795 43.8622L26.0143 45.6665L27.7901 44.7465L26.8553 42.9422L25.0795 43.8622ZM26.949 47.4709L27.8838 49.2752L29.6597 48.3552L28.7249 46.5509L26.949 47.4709ZM28.8186 51.0796L29.7534 52.8839L31.5292 51.9639L30.5944 50.1596L28.8186 51.0796ZM30.6882 54.6883L31.623 56.4926L33.3988 55.5726L32.464 53.7683L30.6882 54.6883ZM32.5577 58.297L33.4925 60.1013L35.2684 59.1813L34.3336 57.377L32.5577 58.297ZM34.4273 61.9057L35.3621 63.71L37.1379 62.79L36.2031 60.9857L34.4273 61.9057ZM36.2969 65.5144L37.2317 67.3187L39.0075 66.3987L38.0727 64.5943L36.2969 65.5144ZM38.1664 69.123L39.1012 70.9274L40.877 70.0074L39.9423 68.203L38.1664 69.123ZM40.036 72.7317L40.9708 74.5361L42.7466 73.6161L41.8118 71.8117L40.036 72.7317ZM41.9056 76.3404L42.8403 78.1448L44.6162 77.2248L43.6814 75.4204L41.9056 76.3404ZM43.7751 79.9491L44.7099 81.7535L46.4857 80.8335L45.551 79.0291L43.7751 79.9491ZM45.6447 83.5578L46.1121 84.46L47.8879 83.54L47.4205 82.6378L45.6447 83.5578Z" fill="#FFB84D"/>
</svg>
