<svg width="114" height="113" viewBox="0 0 114 113" fill="none" xmlns="http://www.w3.org/2000/svg">
<path d="M1.2485 1.62331C0.697841 1.66567 0.285783 2.1464 0.328141 2.69706L1.01841 11.6705C1.06077 12.2212 1.5415 12.6333 2.09216 12.5909C2.64282 12.5485 3.05488 12.0678 3.01252 11.5172L2.39895 3.54072L10.3754 2.92715C10.926 2.88479 11.3381 2.40405 11.2957 1.8534C11.2534 1.30274 10.7726 0.89068 10.222 0.933038L1.2485 1.62331ZM0.674404 3.37962L1.3744 3.97962L2.67599 2.4611L1.97599 1.8611L0.674404 3.37962ZM2.7744 5.17962L4.1744 6.37962L5.47599 4.8611L4.07599 3.6611L2.7744 5.17962ZM5.5744 7.57962L6.9744 8.77962L8.27599 7.2611L6.87599 6.0611L5.5744 7.57962ZM8.3744 9.97962L9.7744 11.1796L11.076 9.66111L9.67599 8.4611L8.3744 9.97962ZM11.1744 12.3796L12.5744 13.5796L13.876 12.0611L12.476 10.8611L11.1744 12.3796ZM13.9744 14.7796L14.6744 15.3796L15.976 13.8611L15.276 13.2611L13.9744 14.7796Z" fill="#FFB84D"/>
<line x1="69.6419" y1="76.2332" x2="112.642" y2="112.233" stroke="#FFB84D" stroke-width="2" stroke-dasharray="2 2"/>
</svg>
