<svg width="24" height="24" viewBox="0 0 24 24" fill="none" xmlns="http://www.w3.org/2000/svg">
<g clip-path="url(#clip0_2001_451)">
<path d="M1.26369 4.49219C1.26369 4.49219 0.573692 5.12969 0.508067 5.32281C0.463067 5.45781 0.674942 5.65094 0.866192 5.84031C1.05744 6.02969 7.83182 12.8903 7.83182 12.8903C7.83182 12.8903 12.2212 10.4003 10.0274 9.47031C7.83369 8.54031 1.26369 4.49219 1.26369 4.49219ZM4.81307 22.7059C4.81307 22.7059 5.15619 23.0528 5.36994 23.2291C5.72807 23.5253 6.05994 23.0453 6.39744 22.7491C6.73494 22.4528 12.1593 17.1016 12.1593 17.1016C12.1593 17.1016 17.6474 22.6216 17.9231 22.8541C18.1968 23.0866 18.5362 22.9891 18.6843 22.8634C18.8324 22.7359 19.6556 21.9109 19.6556 21.9109L13.6181 15.1928L8.57432 16.2278L4.81307 22.7059ZM15.0074 10.1472L15.7668 13.2297L16.5693 12.3222C16.5693 12.3222 22.9856 5.86281 23.1749 5.69406C23.3643 5.52531 23.4581 5.23281 23.3099 5.04344C23.1618 4.85406 23.0006 4.69656 23.0006 4.69656L15.0074 10.1472Z" fill="#464C4F"/>
<path d="M7.85314 11.6247C7.85314 11.7297 1.39376 18.1253 1.16314 18.3784C0.932511 18.6316 0.951261 18.8641 1.22689 19.1809C1.50251 19.4978 4.70501 22.6009 4.81564 22.7059C4.94314 22.8259 5.32189 22.6422 5.59751 22.3891C5.87126 22.1359 12.0138 16.0572 12.1825 16.0572C12.3513 16.0572 18.0719 21.7984 18.4094 22.0516C18.7469 22.3047 19.1688 22.2841 19.4219 22.1153C19.675 21.9466 22.3769 19.2653 22.5663 19.0553C22.7556 18.8434 22.5869 18.5491 22.27 18.1891C21.9531 17.8309 16.1275 11.7522 16.1275 11.7522L23.0088 4.70218C23.0088 4.70218 19.5888 1.43031 19.3788 1.24093C19.1688 1.05156 18.7881 0.860308 18.3438 1.28406C17.8994 1.70781 12.0325 7.63656 12.0325 7.63656C12.0325 7.63656 5.78501 1.11343 5.57501 0.924058C5.36501 0.734683 5.08939 0.819058 4.85689 1.00843C4.62439 1.19781 1.31126 4.42656 1.18376 4.57468C1.05626 4.72281 1.31126 4.95531 1.66939 5.33406C2.02751 5.71281 7.85314 11.6247 7.85314 11.6247Z" fill="#616266"/>
<path d="M5.11548 2.10785C4.66173 2.07598 2.61235 3.8141 3.1336 4.31098C3.5761 4.73285 4.33923 3.79348 5.07798 3.81223C5.81673 3.83098 6.7636 4.34285 7.0861 3.88723C7.47985 3.33035 5.66485 2.14535 5.11548 2.10785ZM18.9905 2.33473C18.3267 2.43598 17.3442 3.40348 16.4574 4.30535C15.5705 5.20723 14.948 5.9591 15.2049 6.28535C15.5349 6.70348 16.5267 5.59348 17.1436 5.05348C17.7586 4.51348 18.6867 3.82535 19.3336 3.80098C19.9936 3.7766 20.6424 4.0616 20.7792 3.7166C20.9124 3.3716 19.8867 2.19785 18.9905 2.33473ZM5.21485 16.0054C4.99548 15.8197 4.14798 16.1254 3.2461 17.3122C2.34423 18.4991 2.61798 19.0579 2.9611 19.491C3.3661 20.001 3.7936 20.3047 4.04298 19.866C4.22298 19.551 4.08798 18.9341 4.32798 18.2591C4.56798 17.5822 5.03485 16.8322 5.16985 16.6072C5.30485 16.3822 5.40985 16.1704 5.21485 16.0054Z" fill="#9A9A9A"/>
</g>
<defs>
<clipPath id="clip0_2001_451">
<rect width="24" height="24" fill="white"/>
</clipPath>
</defs>
</svg>
