<svg width="33" height="33" viewBox="0 0 33 33" fill="none" xmlns="http://www.w3.org/2000/svg">
<path d="M5.41773 1.22534L16.6465 12.4536L27.8171 1.28352C28.0638 1.0209 28.3611 0.810808 28.691 0.665852C29.0209 0.520895 29.3767 0.444056 29.737 0.439941C30.5085 0.439941 31.2484 0.746412 31.794 1.29193C32.3395 1.83745 32.646 2.57734 32.646 3.34882C32.6528 3.70546 32.5866 4.05972 32.4516 4.38986C32.3165 4.72 32.1154 5.01906 31.8606 5.26869L20.5446 16.4388L31.8606 27.7543C32.34 28.2234 32.6212 28.8585 32.646 29.5288C32.646 30.3002 32.3395 31.0401 31.794 31.5856C31.2484 32.1312 30.5085 32.4376 29.737 32.4376C29.3663 32.453 28.9964 32.3911 28.6508 32.2559C28.3053 32.1207 27.9916 31.9151 27.7298 31.6522L16.6465 20.424L5.44682 31.6232C5.20102 31.877 4.90738 32.0797 4.58285 32.2195C4.25831 32.3593 3.9093 32.4334 3.55596 32.4376C2.78445 32.4376 2.04453 32.1312 1.49899 31.5856C0.953441 31.0401 0.646958 30.3002 0.646958 29.5288C0.640175 29.1721 0.706346 28.8179 0.84141 28.4877C0.976474 28.1576 1.17758 27.8585 1.43239 27.6089L12.7484 16.4388L1.43239 5.12324C0.952941 4.65421 0.671799 4.01906 0.646958 3.34882C0.646958 2.57734 0.953441 1.83745 1.49899 1.29193C2.04453 0.746412 2.78445 0.439941 3.55596 0.439941C4.25412 0.448668 4.9232 0.73083 5.41773 1.22534Z" fill="black"/>
</svg>
