<svg width="44" height="48" viewBox="0 0 44 48" fill="none" xmlns="http://www.w3.org/2000/svg">
<path d="M39.8171 9.1682L25.7069 1.03061C23.3242 -0.343582 20.3634 -0.343488 17.9806 1.03061L3.87047 9.1682C1.48303 10.5449 0 13.1124 0 15.8687V32.1312C0 34.8875 1.48303 37.455 3.87037 38.8317L17.9806 46.9693C20.3638 48.3438 23.3244 48.3433 25.7069 46.9693L39.817 38.8317C42.2045 37.455 43.6875 34.8875 43.6875 32.1312V15.8687C43.6875 13.1125 42.2045 10.545 39.8171 9.1682ZM39.9375 32.1312C39.9375 33.551 39.1736 34.8735 37.9438 35.5826L23.8336 43.7202C22.6061 44.4282 21.0813 44.4282 19.8538 43.7202L5.74359 35.5826C4.51388 34.8734 3.75 33.551 3.75 32.1312V15.8687C3.75 14.449 4.51388 13.1265 5.74369 12.4174L19.8538 4.27979C21.0814 3.57179 22.6067 3.57207 23.8337 4.27979L37.9439 12.4173C39.1736 13.1265 39.9375 14.4489 39.9375 15.8687V32.1312Z" fill="url(#paint0_linear_60_222)"/>
<path d="M20.0619 22.5686L13.0981 16.6752C12.3077 16.0062 11.1244 16.1048 10.4555 16.8955C9.78662 17.6861 9.88525 18.8694 10.6757 19.5384L15.9481 24.0003L10.6757 28.4621C9.88525 29.1311 9.78671 30.3144 10.4555 31.105C11.126 31.8974 12.3095 31.9926 13.0981 31.3252L20.0619 25.4318C20.9478 24.682 20.9453 23.3163 20.0619 22.5686Z" fill="url(#paint1_linear_60_222)"/>
<path d="M31.8006 28.0176H23.3635C22.328 28.0176 21.4885 28.8571 21.4885 29.8929C21.4885 30.9286 22.328 31.7681 23.3635 31.7681H31.8006C32.836 31.7681 33.6756 30.9286 33.6756 29.8929C33.6756 28.8571 32.8361 28.0176 31.8006 28.0176Z" fill="url(#paint2_linear_60_222)"/>
<defs>
<linearGradient id="paint0_linear_60_222" x1="21.8438" y1="0" x2="21.8438" y2="48" gradientUnits="userSpaceOnUse">
<stop stop-color="#3CC7FF"/>
<stop offset="1" stop-color="#4BDAFF"/>
</linearGradient>
<linearGradient id="paint1_linear_60_222" x1="15.3686" y1="16.2314" x2="15.3686" y2="31.7689" gradientUnits="userSpaceOnUse">
<stop stop-color="#3CC7FF"/>
<stop offset="1" stop-color="#4BDAFF"/>
</linearGradient>
<linearGradient id="paint2_linear_60_222" x1="27.582" y1="28.0176" x2="27.582" y2="31.7681" gradientUnits="userSpaceOnUse">
<stop stop-color="#3CC7FF"/>
<stop offset="1" stop-color="#4BDAFF"/>
</linearGradient>
</defs>
</svg>
